<svg width="8" height="14" viewBox="0 0 8 14" fill="none" xmlns="http://www.w3.org/2000/svg">
<path id="Vector" d="M7.14171 6.1125L2.13881 1.1125C1.91361 0.8875 1.60091 0.75 1.25071 0.75C0.56284 0.75 0 1.3125 0 2C0 2.35 0.13759 2.6625 0.36272 2.8875L4.49021 7L0.375231 11.1125C0.137591 11.3375 0 11.65 0 12C0 12.6875 0.56284 13.25 1.25071 13.25C1.60091 13.25 1.91361 13.1125 2.13881 12.8875L7.14171 7.8875C7.36691 7.6625 7.50451 7.35 7.50451 7C7.50451 6.65 7.36691 6.3375 7.14171 6.1125Z" fill="#19615C"/>
</svg>
